<svg width="44" height="45" viewBox="0 0 44 45" fill="none" xmlns="http://www.w3.org/2000/svg">
<g filter="url(#filter0_b_900_862)">
<rect width="44" height="44" transform="translate(0 0.771423)" fill="#101010"/>
<path d="M29.3463 18.5039C29.3038 18.3866 29.2317 18.2983 29.13 18.2391C24.9204 15.8186 20.7426 13.4092 16.5967 11.0111C16.5449 10.9814 16.5014 10.9389 16.4704 10.8876C16.4393 10.8363 16.4216 10.7779 16.419 10.7177C16.4112 10.5143 16.4838 10.3685 16.6369 10.2802C18.2495 9.34822 19.8933 8.39835 21.5685 7.43059C21.6352 7.39188 21.7109 7.37149 21.7881 7.37149C21.8652 7.37149 21.9409 7.39188 22.0076 7.43059L34.9936 14.9201C35.0441 14.9491 35.0861 14.991 35.1155 15.0415C35.145 15.0921 35.1607 15.1496 35.1612 15.2084L35.1997 20.388C35.2003 20.4745 35.1781 20.5595 35.1354 20.6343C35.0927 20.7091 35.031 20.771 34.9567 20.8138L30.0604 23.6366C29.9927 23.6756 29.9161 23.6962 29.838 23.6963C29.7599 23.6964 29.6832 23.676 29.6155 23.6372C29.5477 23.5983 29.4914 23.5423 29.4521 23.4749C29.4128 23.4074 29.3919 23.3308 29.3915 23.2527L29.3681 18.6296C29.3681 18.5864 29.3607 18.5438 29.3463 18.5039Z" fill="#B4F9BA"/>
<path d="M13.4772 12.3885C15.0127 13.2836 16.6638 14.2056 18.2428 15.1376C18.4752 15.275 18.6026 15.4354 18.625 15.6187C18.6292 15.6501 18.6264 15.682 18.6169 15.7122C18.6073 15.7423 18.5912 15.7699 18.5697 15.793C18.4255 15.9472 18.2528 16.0824 18.0517 16.1986C16.7744 16.9306 15.5552 17.6374 14.3941 18.3191C14.3242 18.3604 14.2663 18.4193 14.226 18.4898C14.1857 18.5604 14.1645 18.6402 14.1645 18.7214V33.1656C14.1645 33.2664 14.1247 33.3631 14.0537 33.4347C13.9828 33.5063 13.8864 33.5469 13.7856 33.5478C13.6504 33.549 13.5197 33.5132 13.3934 33.4405C11.7183 32.475 10.1147 31.5497 8.58256 30.6647C8.51473 30.6253 8.45844 30.5688 8.41931 30.5009C8.38019 30.4329 8.3596 30.3559 8.35962 30.2775L8.36129 15.3169C8.36124 15.2506 8.3787 15.1854 8.41194 15.1278C8.44517 15.0701 8.49302 15.0221 8.55071 14.9884L13.0246 12.3885C13.0934 12.3488 13.1715 12.3279 13.2509 12.3279C13.3304 12.3279 13.4084 12.3488 13.4772 12.3885Z" fill="#B4F9BA"/>
<path d="M22.0729 31.3971C25.9596 29.1554 30.0139 26.8154 34.2358 24.377C34.4101 24.2764 34.6649 24.1323 34.8661 24.1826C35.0717 24.2351 35.1756 24.3725 35.1779 24.5949C35.1924 26.555 35.1957 28.4302 35.1879 30.2204C35.1879 30.4327 35.0957 30.592 34.9113 30.6981L22.0092 38.139C21.9484 38.1737 21.8796 38.1919 21.8093 38.1919C21.7391 38.1919 21.6699 38.1737 21.6086 38.139L17.1296 35.576C17.0614 35.5362 17.0047 35.4792 16.9653 35.4107C16.9259 35.3422 16.9051 35.2645 16.905 35.1855V29.5214C16.9049 29.4429 16.9254 29.3657 16.9646 29.2976C17.0037 29.2295 17.0601 29.1729 17.128 29.1334C17.196 29.094 17.2731 29.0732 17.3517 29.073C17.4302 29.0729 17.5074 29.0934 17.5755 29.1325L21.5248 31.3971C21.6079 31.4451 21.7022 31.4703 21.7984 31.4703C21.8946 31.4703 21.9892 31.4451 22.0729 31.3971Z" fill="#B4F9BA"/>
</g>
<defs>
<filter id="filter0_b_900_862" x="-2.22467" y="-1.45324" width="48.4493" height="48.4493" filterUnits="userSpaceOnUse" color-interpolation-filters="sRGB">
<feFlood flood-opacity="0" result="BackgroundImageFix"/>
<feGaussianBlur in="BackgroundImageFix" stdDeviation="1.11233"/>
<feComposite in2="SourceAlpha" operator="in" result="effect1_backgroundBlur_900_862"/>
<feBlend mode="normal" in="SourceGraphic" in2="effect1_backgroundBlur_900_862" result="shape"/>
</filter>
</defs>
</svg>
