<svg width="36" height="36" viewBox="0 0 36 36" fill="none" xmlns="http://www.w3.org/2000/svg">
<rect width="36" height="36" rx="18" fill="#FAFAFA"/>
<path d="M28.5597 18.25C28.5597 17.47 28.4897 16.72 28.3597 16H17.9998V20.255H23.9197C23.6648 21.63 22.8898 22.795 21.7248 23.575V26.335H25.2797C27.3597 24.42 28.5597 21.6 28.5597 18.25Z" fill="#4285F4"/>
<path d="M17.9987 29C20.9687 29 23.4587 28.015 25.2787 26.335L21.7237 23.575C20.7387 24.235 19.4787 24.625 17.9987 24.625C15.1337 24.625 12.7087 22.69 11.8437 20.09H8.1687V22.94C9.9787 26.535 13.6987 29 17.9987 29Z" fill="#34A853"/>
<path d="M11.845 20.0901C11.625 19.4301 11.5 18.7251 11.5 18.0001C11.5 17.2751 11.625 16.5701 11.845 15.9101V13.0601H8.17C7.4 14.593 6.99932 16.2847 7 18.0001C7 19.7751 7.425 21.4551 8.17 22.9401L11.845 20.0901Z" fill="#FBBC05"/>
<path d="M17.9987 11.3751C19.6137 11.3751 21.0637 11.9301 22.2037 13.0201L25.3587 9.86512C23.4537 8.09012 20.9637 7.00012 17.9987 7.00012C13.6987 7.00012 9.9787 9.46512 8.1687 13.0601L11.8437 15.9101C12.7087 13.3101 15.1337 11.3751 17.9987 11.3751Z" fill="#EA4335"/>
</svg>
