<svg width="36" height="36" viewBox="0 0 36 36" fill="none" xmlns="http://www.w3.org/2000/svg">
<path d="M0 18C0 8.05888 8.05888 0 18 0C27.9411 0 36 8.05888 36 18C36 27.9411 27.9411 36 18 36C8.05888 36 0 27.9411 0 18Z" fill="#333331"/>
<path d="M0.5 18C0.5 8.33502 8.33502 0.5 18 0.5C27.665 0.5 35.5 8.33502 35.5 18C35.5 27.665 27.665 35.5 18 35.5C8.33502 35.5 0.5 27.665 0.5 18Z" stroke="#FAFAFA" stroke-opacity="0.16"/>
<g opacity="0.6">
<path d="M17.8829 20.5037C21.0643 17.3039 24.2382 14.1117 27.3348 11H8.46338C11.6896 14.2552 14.866 17.4625 17.8804 20.5037H17.8829Z" fill="white"/>
<path d="M9.09619 25H26.8814C25.0229 23.1018 23.1719 21.2086 21.1764 19.1694C20.8376 19.5571 20.4789 20.0153 20.0753 20.4257C18.0598 22.48 17.878 22.4875 15.8376 20.3779C15.444 19.97 15.2098 19.4086 14.9881 19.0562C12.7957 21.2691 10.9597 23.122 9.09868 25.0026L9.09619 25Z" fill="white"/>
<path d="M27.9999 12.8228C26.1215 14.6731 24.268 16.4958 22.5415 18.1977C24.3402 20.0481 26.1638 21.9236 27.9999 23.8143V12.8228Z" fill="white"/>
<path d="M8 12.7852V23.8271C9.87344 21.9414 11.7095 20.0961 13.5356 18.2583C11.7569 16.4985 9.90085 14.6632 8 12.7852Z" fill="white"/>
<path d="M17.8829 20.5037C14.866 17.4625 11.6896 14.2552 8.46338 11H27.3348C24.2382 14.1117 21.0643 17.3039 17.8829 20.5037Z" fill="#FAFAFA"/>
<path d="M9.09619 25.0001C10.9597 23.1195 12.7957 21.2666 14.9856 19.0537C15.2073 19.4062 15.4415 19.9701 15.8351 20.3754C17.8755 22.4851 18.0573 22.4776 20.0728 20.4232C20.4764 20.0129 20.8351 19.5547 21.1739 19.167C23.1694 21.2062 25.0229 23.0994 26.879 24.9976H9.09619V25.0001Z" fill="#FAFAFA"/>
<path d="M27.9999 12.8228V23.8119C26.1638 21.9237 24.3377 20.0456 22.5415 18.1952C24.268 16.4959 26.1215 14.6707 27.9999 12.8203V12.8228Z" fill="#FAFAFA"/>
<path d="M8 12.7852C9.90085 14.6632 11.7569 16.4985 13.5356 18.2558C11.7095 20.0936 9.87344 21.9414 8 23.8245V12.7852Z" fill="#FAFAFA"/>
</g>
</svg>
