<svg width="36" height="40" viewBox="0 0 36 40" fill="none" xmlns="http://www.w3.org/2000/svg">
<g filter="url(#filter0_dd_3_1485)">
<rect x="4" y="4" width="28" height="28" rx="14" fill="white" shape-rendering="crispEdges"/>
<rect x="7.11108" y="7.11133" width="21.7778" height="21.7778" rx="4.66667" fill="white"/>
<path d="M25.8472 9.5379L19.0459 14.5893L20.3036 11.609L25.8472 9.5379Z" fill="#E2761B" stroke="#E2761B" stroke-width="0.0683546" stroke-linecap="round" stroke-linejoin="round"/>
<path d="M10.146 9.53796L16.8926 14.6372L15.6964 11.6091L10.146 9.53796Z" fill="#E4761B" stroke="#E4761B" stroke-width="0.0683546" stroke-linecap="round" stroke-linejoin="round"/>
<path d="M23.3998 21.2471L21.5884 24.0223L25.4641 25.0886L26.5783 21.3086L23.3998 21.2471Z" fill="#E4761B" stroke="#E4761B" stroke-width="0.0683546" stroke-linecap="round" stroke-linejoin="round"/>
<path d="M9.42822 21.3086L10.5356 25.0886L14.4113 24.0223L12.5999 21.2471L9.42822 21.3086Z" fill="#E4761B" stroke="#E4761B" stroke-width="0.0683546" stroke-linecap="round" stroke-linejoin="round"/>
<path d="M14.1926 16.558L13.1125 18.1917L16.9609 18.3626L16.8242 14.2271L14.1926 16.558Z" fill="#E4761B" stroke="#E4761B" stroke-width="0.0683546" stroke-linecap="round" stroke-linejoin="round"/>
<path d="M21.8003 16.558L19.1345 14.1793L19.0457 18.3626L22.8872 18.1917L21.8003 16.558Z" fill="#E4761B" stroke="#E4761B" stroke-width="0.0683546" stroke-linecap="round" stroke-linejoin="round"/>
<path d="M14.4114 24.0223L16.7218 22.8944L14.7258 21.3359L14.4114 24.0223Z" fill="#E4761B" stroke="#E4761B" stroke-width="0.0683546" stroke-linecap="round" stroke-linejoin="round"/>
<path d="M19.2712 22.8944L21.5885 24.0223L21.2672 21.3359L19.2712 22.8944Z" fill="#E4761B" stroke="#E4761B" stroke-width="0.0683546" stroke-linecap="round" stroke-linejoin="round"/>
<path d="M21.5887 24.0222L19.2715 22.8943L19.456 24.405L19.4355 25.0407L21.5887 24.0222Z" fill="#D7C1B3" stroke="#D7C1B3" stroke-width="0.0683546" stroke-linecap="round" stroke-linejoin="round"/>
<path d="M14.4114 24.0222L16.5645 25.0407L16.5509 24.405L16.7218 22.8944L14.4114 24.0222Z" fill="#D7C1B3" stroke="#D7C1B3" stroke-width="0.0683546" stroke-linecap="round" stroke-linejoin="round"/>
<path d="M16.5987 20.3379L14.6711 19.7706L16.0314 19.1486L16.5987 20.3379Z" fill="#233447" stroke="#233447" stroke-width="0.0683546" stroke-linecap="round" stroke-linejoin="round"/>
<path d="M19.3945 20.3379L19.9619 19.1486L21.329 19.7706L19.3945 20.3379Z" fill="#233447" stroke="#233447" stroke-width="0.0683546" stroke-linecap="round" stroke-linejoin="round"/>
<path d="M14.4113 24.0223L14.7394 21.2471L12.5999 21.3086L14.4113 24.0223Z" fill="#CD6116" stroke="#CD6116" stroke-width="0.0683546" stroke-linecap="round" stroke-linejoin="round"/>
<path d="M21.2603 21.2471L21.5884 24.0223L23.3998 21.3086L21.2603 21.2471Z" fill="#CD6116" stroke="#CD6116" stroke-width="0.0683546" stroke-linecap="round" stroke-linejoin="round"/>
<path d="M22.8872 18.1916L19.0457 18.3625L19.4011 20.3379L19.9684 19.1486L21.3355 19.7706L22.8872 18.1916Z" fill="#CD6116" stroke="#CD6116" stroke-width="0.0683546" stroke-linecap="round" stroke-linejoin="round"/>
<path d="M14.671 19.7706L16.0381 19.1486L16.5986 20.3379L16.9609 18.3625L13.1125 18.1916L14.671 19.7706Z" fill="#CD6116" stroke="#CD6116" stroke-width="0.0683546" stroke-linecap="round" stroke-linejoin="round"/>
<path d="M13.1125 18.1916L14.7257 21.3359L14.671 19.7706L13.1125 18.1916Z" fill="#E4751F" stroke="#E4751F" stroke-width="0.0683546" stroke-linecap="round" stroke-linejoin="round"/>
<path d="M21.3357 19.7706L21.2673 21.3359L22.8873 18.1916L21.3357 19.7706Z" fill="#E4751F" stroke="#E4751F" stroke-width="0.0683546" stroke-linecap="round" stroke-linejoin="round"/>
<path d="M16.9609 18.3625L16.5986 20.3379L17.0498 22.6688L17.1523 19.5997L16.9609 18.3625Z" fill="#E4751F" stroke="#E4751F" stroke-width="0.0683546" stroke-linecap="round" stroke-linejoin="round"/>
<path d="M19.0456 18.3625L18.8611 19.5929L18.9431 22.6688L19.4011 20.3379L19.0456 18.3625Z" fill="#E4751F" stroke="#E4751F" stroke-width="0.0683546" stroke-linecap="round" stroke-linejoin="round"/>
<path d="M19.4013 20.338L18.9434 22.6689L19.2715 22.8944L21.2674 21.336L21.3358 19.7706L19.4013 20.338Z" fill="#F6851B" stroke="#F6851B" stroke-width="0.0683546" stroke-linecap="round" stroke-linejoin="round"/>
<path d="M14.6711 19.7706L14.7258 21.336L16.7218 22.8944L17.0499 22.6689L16.5987 20.338L14.6711 19.7706Z" fill="#F6851B" stroke="#F6851B" stroke-width="0.0683546" stroke-linecap="round" stroke-linejoin="round"/>
<path d="M19.4354 25.0408L19.4559 24.4051L19.2851 24.2547H16.7081L16.5509 24.4051L16.5645 25.0408L14.4114 24.0223L15.1633 24.6375L16.6876 25.697H19.3056L20.8367 24.6375L21.5886 24.0223L19.4354 25.0408Z" fill="#C0AD9E" stroke="#C0AD9E" stroke-width="0.0683546" stroke-linecap="round" stroke-linejoin="round"/>
<path d="M19.2713 22.8945L18.9432 22.6689H17.0498L16.7217 22.8945L16.5508 24.4051L16.708 24.2547H19.285L19.4559 24.4051L19.2713 22.8945Z" fill="#161616" stroke="#161616" stroke-width="0.0683546" stroke-linecap="round" stroke-linejoin="round"/>
<path d="M26.134 14.9175L26.7151 12.1286L25.847 9.53796L19.2712 14.4185L21.8004 16.558L25.3753 17.6038L26.1682 16.681L25.8264 16.4349L26.3733 15.936L25.9495 15.6079L26.4963 15.1909L26.134 14.9175Z" fill="#763D16" stroke="#763D16" stroke-width="0.0683546" stroke-linecap="round" stroke-linejoin="round"/>
<path d="M9.28467 12.1285L9.86568 14.9174L9.49657 15.1908L10.0434 15.6078L9.62644 15.9359L10.1733 16.4349L9.8315 16.681L10.6176 17.6037L14.1925 16.5579L16.7216 14.4184L10.1459 9.5379L9.28467 12.1285Z" fill="#763D16" stroke="#763D16" stroke-width="0.0683546" stroke-linecap="round" stroke-linejoin="round"/>
<path d="M25.3754 17.6037L21.8005 16.5579L22.8873 18.1916L21.2673 21.3359L23.4 21.3086H26.5785L25.3754 17.6037Z" fill="#F6851B" stroke="#F6851B" stroke-width="0.0683546" stroke-linecap="round" stroke-linejoin="round"/>
<path d="M14.1925 16.5579L10.6176 17.6037L9.42822 21.3086H12.5999L14.7257 21.3359L13.1125 18.1916L14.1925 16.5579Z" fill="#F6851B" stroke="#F6851B" stroke-width="0.0683546" stroke-linecap="round" stroke-linejoin="round"/>
<path d="M19.0457 18.3625L19.2712 14.4185L20.3102 11.6091H15.6963L16.7216 14.4185L16.9608 18.3625L17.0429 19.6066L17.0497 22.6689H18.9431L18.9568 19.6066L19.0457 18.3625Z" fill="#F6851B" stroke="#F6851B" stroke-width="0.0683546" stroke-linecap="round" stroke-linejoin="round"/>
</g>
<defs>
<filter id="filter0_dd_3_1485" x="0.111115" y="0.111115" width="35.7778" height="39.6667" filterUnits="userSpaceOnUse" color-interpolation-filters="sRGB">
<feFlood flood-opacity="0" result="BackgroundImageFix"/>
<feColorMatrix in="SourceAlpha" type="matrix" values="0 0 0 0 0 0 0 0 0 0 0 0 0 0 0 0 0 0 127 0" result="hardAlpha"/>
<feOffset dy="3.88888"/>
<feGaussianBlur stdDeviation="1.94444"/>
<feComposite in2="hardAlpha" operator="out"/>
<feColorMatrix type="matrix" values="0 0 0 0 0.0627451 0 0 0 0 0.0627451 0 0 0 0 0.0627451 0 0 0 0.05 0"/>
<feBlend mode="normal" in2="BackgroundImageFix" result="effect1_dropShadow_3_1485"/>
<feColorMatrix in="SourceAlpha" type="matrix" values="0 0 0 0 0 0 0 0 0 0 0 0 0 0 0 0 0 0 127 0" result="hardAlpha"/>
<feOffset/>
<feGaussianBlur stdDeviation="1.94444"/>
<feComposite in2="hardAlpha" operator="out"/>
<feColorMatrix type="matrix" values="0 0 0 0 0.0627451 0 0 0 0 0.0627451 0 0 0 0 0.0627451 0 0 0 0.1 0"/>
<feBlend mode="normal" in2="effect1_dropShadow_3_1485" result="effect2_dropShadow_3_1485"/>
<feBlend mode="normal" in="SourceGraphic" in2="effect2_dropShadow_3_1485" result="shape"/>
</filter>
</defs>
</svg>
