<svg width="36" height="36" viewBox="0 0 36 36" fill="none" xmlns="http://www.w3.org/2000/svg">
<path d="M0 18C0 8.05888 8.05888 0 18 0C27.9411 0 36 8.05888 36 18C36 27.9411 27.9411 36 18 36C8.05888 36 0 27.9411 0 18Z" fill="#333331"/>
<path d="M0.5 18C0.5 8.33502 8.33502 0.5 18 0.5C27.665 0.5 35.5 8.33502 35.5 18C35.5 27.665 27.665 35.5 18 35.5C8.33502 35.5 0.5 27.665 0.5 18Z" stroke="#FAFAFA" stroke-opacity="0.16"/>
<path opacity="0.6" fill-rule="evenodd" clip-rule="evenodd" d="M25.6531 21.293C25.2309 21.0857 23.1738 20.0802 22.79 19.942C22.4062 19.7962 22.1222 19.7347 21.8459 20.1492C21.5695 20.5637 20.7559 21.5002 20.5179 21.7689C20.2723 22.0452 20.0344 22.0836 19.6045 21.8763C19.19 21.6691 17.839 21.2392 16.2348 19.8115C14.999 18.7139 14.1469 17.3552 13.909 16.9407C13.671 16.5262 13.886 16.3036 14.0932 16.0964C14.2851 15.9045 14.5077 15.6051 14.7226 15.3672C14.7764 15.2981 14.8301 15.229 14.8761 15.1676C14.9759 15.0141 15.045 14.8682 15.1371 14.6686C15.283 14.3923 15.2062 14.1467 15.1064 13.9394C14.999 13.7322 14.1623 11.6827 13.8092 10.8537C13.4638 10.0247 13.1107 10.1629 12.8651 10.1629C12.6194 10.1629 12.3431 10.1245 12.0668 10.1245C11.7904 10.1245 11.3299 10.232 10.9461 10.6465C10.5623 11.061 9.47998 12.0665 9.47998 14.116C9.47998 14.5996 9.56442 15.0755 9.69491 15.5283C10.1171 16.9944 11.0305 18.1996 11.1917 18.4068C11.399 18.6755 14.0855 23.0124 18.338 24.6857C22.5981 26.3437 22.5981 25.791 23.3657 25.7143C24.1333 25.6529 25.845 24.7164 26.1904 23.7416C26.5435 22.7744 26.5435 21.9454 26.4361 21.7689C26.3286 21.6 26.0523 21.5002 25.6378 21.2853L25.6531 21.293Z" fill="#FAFAFA"/>
</svg>
