<svg width="44" height="45" viewBox="0 0 44 45" fill="none" xmlns="http://www.w3.org/2000/svg">
<g filter="url(#filter0_b_900_781)">
<rect width="44" height="44" transform="translate(0 0.771423)" fill="#8345E6"/>
<path d="M29.1983 17.4567C28.6565 17.1374 27.9522 17.1374 27.3563 17.4567L23.1301 19.9048L20.2586 21.5014L16.0326 23.9495C15.4908 24.2688 14.7864 24.2688 14.1905 23.9495L10.8313 22.0335C10.2895 21.7142 9.91024 21.1289 9.91024 20.4902V16.7116C9.91024 16.0729 10.2353 15.4875 10.8313 15.1682L14.1363 13.3055C14.6781 12.9862 15.3824 12.9862 15.9784 13.3055L19.2834 15.1682C19.8252 15.4875 20.2044 16.0729 20.2044 16.7116V19.1597L23.076 17.5099V15.0618C23.076 14.4231 22.751 13.8377 22.1549 13.5184L16.0326 10.0059C15.4908 9.68656 14.7864 9.68656 14.1905 10.0059L7.95976 13.5184C7.36378 13.8377 7.0387 14.4231 7.0387 15.0618V22.14C7.0387 22.7787 7.36378 23.3641 7.95976 23.6834L14.1905 27.1959C14.7323 27.5153 15.4366 27.5153 16.0326 27.1959L20.2586 24.801L23.1301 23.1512L27.3563 20.7563C27.898 20.437 28.6023 20.437 29.1983 20.7563L32.5033 22.619C33.0451 22.9383 33.4244 23.5238 33.4244 24.1624V27.941C33.4244 28.5797 33.0993 29.1651 32.5033 29.4844L29.1983 31.4003C28.6565 31.7196 27.9522 31.7196 27.3563 31.4003L24.0513 29.5376C23.5094 29.2183 23.1301 28.6328 23.1301 27.9942V25.5461L20.2586 27.1959V29.644C20.2586 30.2826 20.5837 30.8681 21.1796 31.1874L27.4104 34.6999C27.9522 35.0192 28.6565 35.0192 29.2525 34.6999L35.4833 31.1874C36.025 30.8681 36.4043 30.2826 36.4043 29.644V22.5657C36.4043 21.9271 36.0792 21.3418 35.4833 21.0225L29.1983 17.4567Z" fill="white"/>
</g>
<defs>
<filter id="filter0_b_900_781" x="-2.22467" y="-1.45324" width="48.4493" height="48.4493" filterUnits="userSpaceOnUse" color-interpolation-filters="sRGB">
<feFlood flood-opacity="0" result="BackgroundImageFix"/>
<feGaussianBlur in="BackgroundImageFix" stdDeviation="1.11233"/>
<feComposite in2="SourceAlpha" operator="in" result="effect1_backgroundBlur_900_781"/>
<feBlend mode="normal" in="SourceGraphic" in2="effect1_backgroundBlur_900_781" result="shape"/>
</filter>
</defs>
</svg>
