<svg width="21" height="20" viewBox="0 0 21 20" fill="none" xmlns="http://www.w3.org/2000/svg">
<g clip-path="url(#clip0_900_1320)">
<path fill-rule="evenodd" clip-rule="evenodd" d="M20.5 -0.400146H0.5V19.5999H20.5V-0.400146ZM11.1095 5.50374V8.10402L15.4037 6.4107V8.33446C15.4037 8.74713 15.1629 9.11615 14.8004 9.25909L11.1095 10.7146V8.79469C11.107 8.3846 10.8669 8.01863 10.5062 7.87642L7.41856 6.65883C7.05603 6.51586 6.81528 6.14684 6.81528 5.73418V3.81041L11.1095 5.50374ZM11.1095 10.7261V11.2272H11.1156V16.6611H9.34632V12.6413L7.41856 11.8811C7.05603 11.7382 6.81528 11.3692 6.81528 10.9565V9.03273L11.1095 10.7261Z" fill="#808080"/>
</g>
<defs>
<clipPath id="clip0_900_1320">
<rect x="0.5" width="20" height="20" rx="4.39286" fill="white"/>
</clipPath>
</defs>
</svg>
